<svg id="Layer_1" data-name="Layer 1" xmlns="http://www.w3.org/2000/svg" viewBox="0 0 67.32 53.42"><defs><style>.cls-1{font-size:12px;font-family:Garamond, Garamond;}.cls-2{letter-spacing:-0.04em;}.cls-3{letter-spacing:-0.06em;}.cls-4{letter-spacing:0.03em;}</style></defs><title>log_text_wide_low</title><path d="M9.21,2.47c-2.6,5.9-1.2,9.4,8.3,20.4,3.1,3.6,5.9,7.5,6.2,8.7,1,3.7,2.4,1.6,2.4-3.6s-3.3-11.4-8.5-16.1a27.56,27.56,0,0,1-5-7.2C10.41,0,10.41,0,9.21,2.47Z" transform="translate(-1.11 -0.8)"/><path d="M5.31,13.27a18.37,18.37,0,0,0-1.2,6.5c0,4.2,1.4,6.4,9.2,14.8,2.7,2.9,5.1,6.6,5.4,8.3,1.1,5.5,3.4,2.9,3.4-3.9,0-3.9-1.9-7.2-9.6-17.3-2.3-2.9-4.6-6.6-5.1-8.2l-.9-2.8Z" transform="translate(-1.11 -0.8)"/><path d="M1.11,29.77a14.17,14.17,0,0,0,2.6,8.7c2.7,4,12.6,14.4,13.8,14.4.3,0,.6-1.8.6-4,0-3.5-.8-4.8-7-11.7-3.9-4.3-7.3-8.8-7.6-10.1C2.51,23.17,1.11,24.67,1.11,29.77Z" transform="translate(-1.11 -0.8)"/><text class="cls-1" transform="translate(30.54 20.94)"><tspan class="cls-2">P</tspan><tspan x="6.29" y="0">olitical</tspan><tspan class="cls-3" x="0" y="14.4">T</tspan><tspan x="6.7" y="14.4">easu</tspan><tspan class="cls-4" x="26.83" y="14.4">r</tspan><tspan x="31.18" y="14.4">y</tspan><tspan x="0" y="28.8">Group</tspan></text></svg>